<svg id="visual" viewBox="0 0 900 600" width="900" height="600" xmlns="http://www.w3.org/2000/svg" xmlns:xlink="http://www.w3.org/1999/xlink" version="1.1"><path d="M0 523L7.5 520.2C15 517.3 30 511.7 45 507.2C60 502.7 75 499.3 90 502C105 504.7 120 513.3 135 513.7C150 514 165 506 180 504C195 502 210 506 225 507C240 508 255 506 270 508.5C285 511 300 518 315 517C330 516 345 507 360 506.2C375 505.3 390 512.7 405 515.7C420 518.7 435 517.3 450 518C465 518.7 480 521.3 495 521.2C510 521 525 518 540 517.2C555 516.3 570 517.7 585 516C600 514.3 615 509.7 630 510.7C645 511.7 660 518.3 675 521.3C690 524.3 705 523.7 720 519.8C735 516 750 509 765 506.7C780 504.3 795 506.7 810 506.3C825 506 840 503 855 499.5C870 496 885 492 892.5 490L900 488L900 601L892.5 601C885 601 870 601 855 601C840 601 825 601 810 601C795 601 780 601 765 601C750 601 735 601 720 601C705 601 690 601 675 601C660 601 645 601 630 601C615 601 600 601 585 601C570 601 555 601 540 601C525 601 510 601 495 601C480 601 465 601 450 601C435 601 420 601 405 601C390 601 375 601 360 601C345 601 330 601 315 601C300 601 285 601 270 601C255 601 240 601 225 601C210 601 195 601 180 601C165 601 150 601 135 601C120 601 105 601 90 601C75 601 60 601 45 601C30 601 15 601 7.5 601L0 601Z" fill="#144272"></path><path d="M0 523L7.5 521.2C15 519.3 30 515.7 45 514.8C60 514 75 516 90 515.7C105 515.3 120 512.7 135 512.8C150 513 165 516 180 515.2C195 514.3 210 509.7 225 508.5C240 507.3 255 509.7 270 509.5C285 509.3 300 506.7 315 510.3C330 514 345 524 360 524.7C375 525.3 390 516.7 405 512.8C420 509 435 510 450 510C465 510 480 509 495 510.3C510 511.7 525 515.3 540 519.2C555 523 570 527 585 528.2C600 529.3 615 527.7 630 526.3C645 525 660 524 675 522.7C690 521.3 705 519.7 720 521.2C735 522.7 750 527.3 765 527.7C780 528 795 524 810 523.5C825 523 840 526 855 523.8C870 521.7 885 514.3 892.5 510.7L900 507L900 601L892.5 601C885 601 870 601 855 601C840 601 825 601 810 601C795 601 780 601 765 601C750 601 735 601 720 601C705 601 690 601 675 601C660 601 645 601 630 601C615 601 600 601 585 601C570 601 555 601 540 601C525 601 510 601 495 601C480 601 465 601 450 601C435 601 420 601 405 601C390 601 375 601 360 601C345 601 330 601 315 601C300 601 285 601 270 601C255 601 240 601 225 601C210 601 195 601 180 601C165 601 150 601 135 601C120 601 105 601 90 601C75 601 60 601 45 601C30 601 15 601 7.5 601L0 601Z" fill="#3e4486"></path><path d="M0 527L7.5 526.5C15 526 30 525 45 522.8C60 520.7 75 517.3 90 517.7C105 518 120 522 135 525.7C150 529.3 165 532.7 180 535.8C195 539 210 542 225 538.3C240 534.7 255 524.3 270 520.3C285 516.3 300 518.7 315 520.2C330 521.7 345 522.3 360 522C375 521.7 390 520.3 405 521.8C420 523.3 435 527.7 450 527.7C465 527.7 480 523.3 495 524.5C510 525.7 525 532.3 540 536.3C555 540.3 570 541.7 585 541C600 540.3 615 537.7 630 533C645 528.3 660 521.7 675 519.7C690 517.7 705 520.3 720 521.2C735 522 750 521 765 521.3C780 521.7 795 523.3 810 524.8C825 526.3 840 527.7 855 525.8C870 524 885 519 892.5 516.5L900 514L900 601L892.5 601C885 601 870 601 855 601C840 601 825 601 810 601C795 601 780 601 765 601C750 601 735 601 720 601C705 601 690 601 675 601C660 601 645 601 630 601C615 601 600 601 585 601C570 601 555 601 540 601C525 601 510 601 495 601C480 601 465 601 450 601C435 601 420 601 405 601C390 601 375 601 360 601C345 601 330 601 315 601C300 601 285 601 270 601C255 601 240 601 225 601C210 601 195 601 180 601C165 601 150 601 135 601C120 601 105 601 90 601C75 601 60 601 45 601C30 601 15 601 7.5 601L0 601Z" fill="#6b4190"></path><path d="M0 545L7.5 541.8C15 538.7 30 532.3 45 532.3C60 532.3 75 538.7 90 541.7C105 544.7 120 544.3 135 543.8C150 543.3 165 542.7 180 541C195 539.3 210 536.7 225 535.2C240 533.7 255 533.3 270 536.2C285 539 300 545 315 548C330 551 345 551 360 548.7C375 546.3 390 541.7 405 541.3C420 541 435 545 450 546.3C465 547.7 480 546.3 495 544.3C510 542.3 525 539.7 540 538C555 536.3 570 535.7 585 536.3C600 537 615 539 630 538.2C645 537.3 660 533.7 675 533C690 532.3 705 534.7 720 538.7C735 542.7 750 548.3 765 547.2C780 546 795 538 810 533.5C825 529 840 528 855 529.2C870 530.3 885 533.7 892.5 535.3L900 537L900 601L892.5 601C885 601 870 601 855 601C840 601 825 601 810 601C795 601 780 601 765 601C750 601 735 601 720 601C705 601 690 601 675 601C660 601 645 601 630 601C615 601 600 601 585 601C570 601 555 601 540 601C525 601 510 601 495 601C480 601 465 601 450 601C435 601 420 601 405 601C390 601 375 601 360 601C345 601 330 601 315 601C300 601 285 601 270 601C255 601 240 601 225 601C210 601 195 601 180 601C165 601 150 601 135 601C120 601 105 601 90 601C75 601 60 601 45 601C30 601 15 601 7.5 601L0 601Z" fill="#98358e"></path><path d="M0 552L7.5 553.8C15 555.7 30 559.3 45 559C60 558.7 75 554.3 90 554C105 553.7 120 557.3 135 556.7C150 556 165 551 180 549.3C195 547.7 210 549.3 225 548.5C240 547.7 255 544.3 270 542.8C285 541.3 300 541.7 315 544.5C330 547.3 345 552.7 360 554.2C375 555.7 390 553.3 405 551.7C420 550 435 549 450 551.2C465 553.3 480 558.7 495 559.5C510 560.3 525 556.7 540 552.8C555 549 570 545 585 543.5C600 542 615 543 630 546.5C645 550 660 556 675 555.8C690 555.7 705 549.3 720 548.3C735 547.3 750 551.7 765 554.2C780 556.7 795 557.3 810 555.2C825 553 840 548 855 547C870 546 885 549 892.5 550.5L900 552L900 601L892.5 601C885 601 870 601 855 601C840 601 825 601 810 601C795 601 780 601 765 601C750 601 735 601 720 601C705 601 690 601 675 601C660 601 645 601 630 601C615 601 600 601 585 601C570 601 555 601 540 601C525 601 510 601 495 601C480 601 465 601 450 601C435 601 420 601 405 601C390 601 375 601 360 601C345 601 330 601 315 601C300 601 285 601 270 601C255 601 240 601 225 601C210 601 195 601 180 601C165 601 150 601 135 601C120 601 105 601 90 601C75 601 60 601 45 601C30 601 15 601 7.5 601L0 601Z" fill="#c21e7f"></path><path d="M0 558L7.5 560.8C15 563.7 30 569.3 45 568.2C60 567 75 559 90 556.7C105 554.3 120 557.7 135 558C150 558.3 165 555.7 180 556.8C195 558 210 563 225 564.8C240 566.7 255 565.3 270 564.5C285 563.7 300 563.3 315 563C330 562.7 345 562.3 360 563.5C375 564.7 390 567.3 405 568.8C420 570.3 435 570.7 450 569.8C465 569 480 567 495 565.7C510 564.3 525 563.7 540 562C555 560.3 570 557.7 585 556.2C600 554.7 615 554.3 630 555C645 555.7 660 557.3 675 557C690 556.7 705 554.3 720 556.5C735 558.7 750 565.3 765 565.7C780 566 795 560 810 557.8C825 555.7 840 557.3 855 558.7C870 560 885 561 892.5 561.5L900 562L900 601L892.5 601C885 601 870 601 855 601C840 601 825 601 810 601C795 601 780 601 765 601C750 601 735 601 720 601C705 601 690 601 675 601C660 601 645 601 630 601C615 601 600 601 585 601C570 601 555 601 540 601C525 601 510 601 495 601C480 601 465 601 450 601C435 601 420 601 405 601C390 601 375 601 360 601C345 601 330 601 315 601C300 601 285 601 270 601C255 601 240 601 225 601C210 601 195 601 180 601C165 601 150 601 135 601C120 601 105 601 90 601C75 601 60 601 45 601C30 601 15 601 7.5 601L0 601Z" fill="#e30064"></path><path d="M0 571L7.5 573.3C15 575.7 30 580.3 45 582.3C60 584.3 75 583.7 90 580.8C105 578 120 573 135 572.5C150 572 165 576 180 577.5C195 579 210 578 225 577C240 576 255 575 270 574.3C285 573.7 300 573.3 315 573.2C330 573 345 573 360 573.2C375 573.3 390 573.7 405 575.2C420 576.7 435 579.3 450 579.2C465 579 480 576 495 574.5C510 573 525 573 540 574C555 575 570 577 585 576.5C600 576 615 573 630 573.2C645 573.3 660 576.7 675 577.7C690 578.7 705 577.3 720 574.8C735 572.3 750 568.7 765 567.8C780 567 795 569 810 569.5C825 570 840 569 855 569.8C870 570.7 885 573.3 892.5 574.7L900 576L900 601L892.5 601C885 601 870 601 855 601C840 601 825 601 810 601C795 601 780 601 765 601C750 601 735 601 720 601C705 601 690 601 675 601C660 601 645 601 630 601C615 601 600 601 585 601C570 601 555 601 540 601C525 601 510 601 495 601C480 601 465 601 450 601C435 601 420 601 405 601C390 601 375 601 360 601C345 601 330 601 315 601C300 601 285 601 270 601C255 601 240 601 225 601C210 601 195 601 180 601C165 601 150 601 135 601C120 601 105 601 90 601C75 601 60 601 45 601C30 601 15 601 7.5 601L0 601Z" fill="#f71040"></path><path d="M0 589L7.5 589C15 589 30 589 45 588.8C60 588.7 75 588.3 90 586.8C105 585.3 120 582.7 135 583.5C150 584.3 165 588.7 180 588.3C195 588 210 583 225 582.7C240 582.3 255 586.7 270 587.2C285 587.7 300 584.3 315 583.7C330 583 345 585 360 585C375 585 390 583 405 582.7C420 582.3 435 583.7 450 585.8C465 588 480 591 495 590.7C510 590.3 525 586.7 540 585.2C555 583.7 570 584.3 585 586.2C600 588 615 591 630 592.7C645 594.3 660 594.7 675 593C690 591.3 705 587.7 720 586C735 584.3 750 584.7 765 585.7C780 586.7 795 588.3 810 588C825 587.7 840 585.3 855 583.7C870 582 885 581 892.5 580.5L900 580L900 601L892.5 601C885 601 870 601 855 601C840 601 825 601 810 601C795 601 780 601 765 601C750 601 735 601 720 601C705 601 690 601 675 601C660 601 645 601 630 601C615 601 600 601 585 601C570 601 555 601 540 601C525 601 510 601 495 601C480 601 465 601 450 601C435 601 420 601 405 601C390 601 375 601 360 601C345 601 330 601 315 601C300 601 285 601 270 601C255 601 240 601 225 601C210 601 195 601 180 601C165 601 150 601 135 601C120 601 105 601 90 601C75 601 60 601 45 601C30 601 15 601 7.5 601L0 601Z" fill="#fc4100"></path></svg>