<svg id="visual" viewBox="0 0 900 600" width="900" height="600" xmlns="http://www.w3.org/2000/svg" xmlns:xlink="http://www.w3.org/1999/xlink" version="1.1"><path d="M0 157L8.8 156.2C17.7 155.3 35.3 153.7 53 156.8C70.7 160 88.3 168 106 173.3C123.7 178.7 141.3 181.3 159 176.8C176.7 172.3 194.3 160.7 212 154.2C229.7 147.7 247.3 146.3 265 148.7C282.7 151 300.3 157 318 159.3C335.7 161.7 353.3 160.3 371 156.2C388.7 152 406.3 145 423.8 150.5C441.3 156 458.7 174 476.2 183C493.7 192 511.3 192 529 193.7C546.7 195.3 564.3 198.7 582 191.3C599.7 184 617.3 166 635 165.8C652.7 165.7 670.3 183.3 688 190C705.7 196.7 723.3 192.3 741 182.7C758.7 173 776.3 158 794 159.8C811.7 161.7 829.3 180.3 847 182.3C864.7 184.3 882.3 169.7 891.2 162.3L900 155L900 0L891.2 0C882.3 0 864.7 0 847 0C829.3 0 811.7 0 794 0C776.3 0 758.7 0 741 0C723.3 0 705.7 0 688 0C670.3 0 652.7 0 635 0C617.3 0 599.7 0 582 0C564.3 0 546.7 0 529 0C511.3 0 493.7 0 476.2 0C458.7 0 441.3 0 423.8 0C406.3 0 388.7 0 371 0C353.3 0 335.7 0 318 0C300.3 0 282.7 0 265 0C247.3 0 229.7 0 212 0C194.3 0 176.7 0 159 0C141.3 0 123.7 0 106 0C88.3 0 70.7 0 53 0C35.3 0 17.7 0 8.8 0L0 0Z" fill="#0a2647"></path><path d="M0 127L8.8 130.7C17.7 134.3 35.3 141.7 53 145.7C70.7 149.7 88.3 150.3 106 152C123.7 153.7 141.3 156.3 159 158C176.7 159.7 194.3 160.3 212 158C229.7 155.7 247.3 150.3 265 150.2C282.7 150 300.3 155 318 151.8C335.7 148.7 353.3 137.3 371 136.7C388.7 136 406.3 146 423.8 147.3C441.3 148.7 458.7 141.3 476.2 135.2C493.7 129 511.3 124 529 128.3C546.7 132.7 564.3 146.3 582 146.3C599.7 146.3 617.3 132.7 635 129.2C652.7 125.7 670.3 132.3 688 137C705.7 141.7 723.3 144.3 741 141.3C758.7 138.3 776.3 129.7 794 128C811.7 126.3 829.3 131.7 847 140.2C864.7 148.7 882.3 160.3 891.2 166.2L900 172L900 0L891.2 0C882.3 0 864.7 0 847 0C829.3 0 811.7 0 794 0C776.3 0 758.7 0 741 0C723.3 0 705.7 0 688 0C670.3 0 652.7 0 635 0C617.3 0 599.7 0 582 0C564.3 0 546.7 0 529 0C511.3 0 493.7 0 476.2 0C458.7 0 441.3 0 423.8 0C406.3 0 388.7 0 371 0C353.3 0 335.7 0 318 0C300.3 0 282.7 0 265 0C247.3 0 229.7 0 212 0C194.3 0 176.7 0 159 0C141.3 0 123.7 0 106 0C88.3 0 70.7 0 53 0C35.3 0 17.7 0 8.8 0L0 0Z" fill="#3b2e68"></path><path d="M0 100L8.8 105.2C17.7 110.3 35.3 120.7 53 121C70.7 121.3 88.3 111.7 106 106.3C123.7 101 141.3 100 159 102.5C176.7 105 194.3 111 212 117.7C229.7 124.3 247.3 131.7 265 130.7C282.7 129.7 300.3 120.3 318 117.5C335.7 114.7 353.3 118.3 371 121C388.7 123.7 406.3 125.3 423.8 127.7C441.3 130 458.7 133 476.2 127.3C493.7 121.7 511.3 107.3 529 103.8C546.7 100.3 564.3 107.7 582 112C599.7 116.3 617.3 117.7 635 118.7C652.7 119.7 670.3 120.3 688 122.7C705.7 125 723.3 129 741 125.5C758.7 122 776.3 111 794 105.2C811.7 99.3 829.3 98.7 847 103.5C864.7 108.3 882.3 118.7 891.2 123.8L900 129L900 0L891.2 0C882.3 0 864.7 0 847 0C829.3 0 811.7 0 794 0C776.3 0 758.7 0 741 0C723.3 0 705.7 0 688 0C670.3 0 652.7 0 635 0C617.3 0 599.7 0 582 0C564.3 0 546.7 0 529 0C511.3 0 493.7 0 476.2 0C458.7 0 441.3 0 423.8 0C406.3 0 388.7 0 371 0C353.3 0 335.7 0 318 0C300.3 0 282.7 0 265 0C247.3 0 229.7 0 212 0C194.3 0 176.7 0 159 0C141.3 0 123.7 0 106 0C88.3 0 70.7 0 53 0C35.3 0 17.7 0 8.8 0L0 0Z" fill="#792876"></path><path d="M0 80L8.8 82.8C17.7 85.7 35.3 91.3 53 91.7C70.7 92 88.3 87 106 83.2C123.7 79.3 141.3 76.7 159 75.3C176.7 74 194.3 74 212 74C229.7 74 247.3 74 265 78.7C282.7 83.3 300.3 92.7 318 94.2C335.7 95.7 353.3 89.3 371 84.5C388.7 79.7 406.3 76.3 423.8 75.5C441.3 74.7 458.7 76.3 476.2 82.5C493.7 88.7 511.3 99.3 529 100C546.7 100.7 564.3 91.3 582 85.5C599.7 79.7 617.3 77.3 635 81C652.7 84.7 670.3 94.3 688 93.8C705.7 93.3 723.3 82.7 741 76.2C758.7 69.7 776.3 67.3 794 72.7C811.7 78 829.3 91 847 92C864.7 93 882.3 82 891.2 76.5L900 71L900 0L891.2 0C882.3 0 864.7 0 847 0C829.3 0 811.7 0 794 0C776.3 0 758.7 0 741 0C723.3 0 705.7 0 688 0C670.3 0 652.7 0 635 0C617.3 0 599.7 0 582 0C564.3 0 546.7 0 529 0C511.3 0 493.7 0 476.2 0C458.7 0 441.3 0 423.8 0C406.3 0 388.7 0 371 0C353.3 0 335.7 0 318 0C300.3 0 282.7 0 265 0C247.3 0 229.7 0 212 0C194.3 0 176.7 0 159 0C141.3 0 123.7 0 106 0C88.3 0 70.7 0 53 0C35.3 0 17.7 0 8.8 0L0 0Z" fill="#b7026b"></path><path d="M0 65L8.8 61.7C17.7 58.3 35.3 51.7 53 52.5C70.7 53.3 88.3 61.7 106 65.5C123.7 69.3 141.3 68.7 159 64.3C176.7 60 194.3 52 212 53C229.7 54 247.3 64 265 65.5C282.7 67 300.3 60 318 57.7C335.7 55.3 353.3 57.7 371 59.2C388.7 60.7 406.3 61.3 423.8 62.5C441.3 63.7 458.7 65.3 476.2 65.5C493.7 65.7 511.3 64.3 529 63C546.7 61.7 564.3 60.3 582 60.8C599.7 61.3 617.3 63.7 635 62.7C652.7 61.7 670.3 57.3 688 56.2C705.7 55 723.3 57 741 61.2C758.7 65.3 776.3 71.7 794 72.3C811.7 73 829.3 68 847 66.3C864.7 64.7 882.3 66.3 891.2 67.2L900 68L900 0L891.2 0C882.3 0 864.7 0 847 0C829.3 0 811.7 0 794 0C776.3 0 758.7 0 741 0C723.3 0 705.7 0 688 0C670.3 0 652.7 0 635 0C617.3 0 599.7 0 582 0C564.3 0 546.7 0 529 0C511.3 0 493.7 0 476.2 0C458.7 0 441.3 0 423.8 0C406.3 0 388.7 0 371 0C353.3 0 335.7 0 318 0C300.3 0 282.7 0 265 0C247.3 0 229.7 0 212 0C194.3 0 176.7 0 159 0C141.3 0 123.7 0 106 0C88.3 0 70.7 0 53 0C35.3 0 17.7 0 8.8 0L0 0Z" fill="#e60049"></path><path d="M0 41L8.8 38.8C17.7 36.7 35.3 32.3 53 29C70.7 25.7 88.3 23.3 106 22.2C123.7 21 141.3 21 159 20.3C176.7 19.7 194.3 18.3 212 20C229.7 21.7 247.3 26.3 265 26.8C282.7 27.3 300.3 23.7 318 22C335.7 20.3 353.3 20.7 371 24.7C388.7 28.7 406.3 36.3 423.8 35.7C441.3 35 458.7 26 476.2 22.3C493.7 18.7 511.3 20.3 529 21.5C546.7 22.7 564.3 23.3 582 26.8C599.7 30.3 617.3 36.7 635 35.8C652.7 35 670.3 27 688 25C705.7 23 723.3 27 741 29.7C758.7 32.3 776.3 33.7 794 36.8C811.7 40 829.3 45 847 47.3C864.7 49.7 882.3 49.3 891.2 49.2L900 49L900 0L891.2 0C882.3 0 864.7 0 847 0C829.3 0 811.7 0 794 0C776.3 0 758.7 0 741 0C723.3 0 705.7 0 688 0C670.3 0 652.7 0 635 0C617.3 0 599.7 0 582 0C564.3 0 546.7 0 529 0C511.3 0 493.7 0 476.2 0C458.7 0 441.3 0 423.8 0C406.3 0 388.7 0 371 0C353.3 0 335.7 0 318 0C300.3 0 282.7 0 265 0C247.3 0 229.7 0 212 0C194.3 0 176.7 0 159 0C141.3 0 123.7 0 106 0C88.3 0 70.7 0 53 0C35.3 0 17.7 0 8.8 0L0 0Z" fill="#fc4100"></path></svg>